/* XPM */
static char *_536528757064[] = {
/* columns rows colors chars-per-pixel */
"100 100 4 1 ",
"  c #4C4C4C",
". c #7C7C7C",
"X c #E41000",
"o c #0BE400",
/* pixels */
"                                                                                                    ",
"                                                                                                    ",
"                                                                                                    ",
"                                                                                                    ",
"                                                                                                    ",
"                                                                                                    ",
"                                                                                                    ",
"                                                                                                    ",
"    ............................................................................................    ",
"    ............................................................................................    ",
"    ............................................................................................    ",
"    ............................................................................................    ",
"    ....oooooooooooooooooooooooooooooooooooooooooooooooooooooooooooooooooooooooooooooooooooo....    ",
"    ....oooooooooooooooooooooooooooooooooooooooooooooooooooooooooooooooooooooooooooooooooooo....    ",
"    ....oooooooooooooooooooooooooooooooooooooooooooooooooooooooooooooooooooooooooooooooooooo....    ",
"    ....oooooooooooooooooooooooooooooooooooooooooooooooooooooooooooooooooooooooooooooooooooo....    ",
"    ....oooooooooooooooooooooooooooooooooooooooooooooooooooooooooooooooooooooooooooooooooooo....    ",
"    ....oooooooooooooooooooooooooooooooooooooooooooooooooooooooooooooooooooooooooooooooooooo....    ",
"    ....oooooooooooooooooooooooooooooooooooooooooooooooooooooooooooooooooooooooooooooooooooo....    ",
"    ....oooooooooooooooooooooooooooooooooooooooooooooooooooooooooooooooooooooooooooooooooooo....    ",
"    ....oooooooooooooooooooooooooooooooooooooooooooooooooooooooooooooooooooooooooooooooooooo....    ",
"    ....oooooooooooooooooooooooooooooooooooooooooooooooooooooooooooooooooooooooooooooooooooo....    ",
"    ....oooooooooooooooooooooooooooooooooooooooooooooooooooooooooooooooooooooooooooooooooooo....    ",
"    ....oooooooooooooooooooooooooooooooooooooooooooooooooooooooooooooooooooooooooooooooooooo....    ",
"    ....oooooooooooooooooooooooooooooooooooooooooooooooooooooooooooooooooooooooooooooooooooo....    ",
"    ....oooooooooooooooooooooooooooooooooooooooooooooooooooooooooooooooooooooooooooooooooooo....    ",
"    ....oooooooooooooooooooooooooooooooooooooooooooooooooooooooooooooooooooooooooooooooooooo....    ",
"    ............................................................................................    ",
"    ............................................................................................    ",
"    ............................................................................................    ",
"    ............................................................................................    ",
"                                                                                                    ",
"                                                                                                    ",
"                                                                                                    ",
"                                                                                                    ",
"                                                                                                    ",
"                                                                                                    ",
"                                                                                                    ",
"                                                                                                    ",
"                                                                                                    ",
"                                                                                                    ",
"                                                                                                    ",
"                                                                                                    ",
"                                                                                                    ",
"                                                                                                    ",
"                                                                                                    ",
"                                                                                                    ",
"                                                                                                    ",
"                               .........................................                            ",
"                               . ..................................... .                            ",
"                               .........................................                            ",
"                               .........................................                            ",
"                               .........................................                            ",
"                               .........................................                            ",
"                               .........................................                            ",
"                               .........................................                            ",
"                               .........................................                            ",
"                               .........................................                            ",
"                               .........................................                            ",
"                               .........................................                            ",
"                               .........................................                            ",
"                               .........................................                            ",
"                               .........................................                            ",
"                               .........................................                            ",
"                               .........................................                            ",
"                               .........................................                            ",
"                               . ..................................... .                            ",
"                               . ..................................... .                            ",
"                               . ..................................... .                            ",
"                               . ..................................... .                            ",
"                               . ..................................... .                            ",
"                               . ..................................... .                            ",
"                               . ..................................... .                            ",
"                               . ..................................... .                            ",
"                               . ..................................... .                            ",
"                               . ..................................... .                            ",
"                               . ..................................... .                            ",
"                               . ..................................... .                            ",
"                               . ..................................... .                            ",
"                               . ..................................... .                            ",
"                               .                                       .                            ",
"                               ..................XXXX...................                            ",
"                               ..................XXXX...................                            ",
"                               ..................XXXX...................                            ",
"                               . ................XXXX................. .                            ",
"                               .........................................                            ",
"                                                                                                    ",
"                                                                                                    ",
"                                                                                                    ",
"                                                                                                    ",
"                                                                                                    ",
"                                                                                                    ",
"                                                                                                    ",
"                                                                                                    ",
"                                                                                                    ",
"                                                                                                    ",
"                                                                                                    ",
"                                                                                                    ",
"                                                                                                    ",
"                                                                                                    "
};
